<svg id="Capa_1" data-name="Capa 1" xmlns="http://www.w3.org/2000/svg" xmlns:xlink="http://www.w3.org/1999/xlink" viewBox="0 0 48 48"><defs><style>.cls-1{fill:url(#Degradado_sin_nombre_16);}.cls-2{fill:#fff;}.cls-3{fill:#ff0059;fill-rule:evenodd;}</style><linearGradient id="Degradado_sin_nombre_16" x1="24" y1="-0.8" x2="24" y2="37.67" gradientUnits="userSpaceOnUse"><stop offset="0" stop-color="#c8c8c8"/><stop offset="1" stop-color="#646464"/></linearGradient></defs><title>marcador_publicos_freemium</title><path id="_Trazado_" data-name="&lt;Trazado&gt;" class="cls-1" d="M24,47.14c-.57-2.24-1.49-5.78-2.2-8.13A58.26,58.26,0,0,0,16,26c-.86-1.54-1.75-3.13-2.67-5l0-.06,0,0a12.9,12.9,0,1,1,21.37,0l0,0,0,.05c-.92,1.84-1.81,3.43-2.67,5A58.27,58.27,0,0,0,26.2,39C25.49,41.36,24.57,44.89,24,47.14Z"/><circle class="cls-2" cx="24" cy="12.57" r="6.75"/><path id="_Trazado_2" data-name="&lt;Trazado&gt;" class="cls-3" d="M24,13.92h0a1.35,1.35,0,0,1-1.35-1.35h0A1.35,1.35,0,0,1,24,11.22h0a1.35,1.35,0,0,1,1.35,1.35h0A1.35,1.35,0,0,1,24,13.92Z"/></svg>