<svg xmlns="http://www.w3.org/2000/svg" xmlns:xlink="http://www.w3.org/1999/xlink" viewBox="0 0 48 48"><defs><style>.cls-1{fill:url(#Degradado_sin_nombre_24);}.cls-2{fill:#fff;}.cls-3{fill:#ff0059;fill-rule:evenodd;}</style><linearGradient id="Degradado_sin_nombre_24" x1="24" y1="-0.94" x2="24" y2="37.75" gradientUnits="userSpaceOnUse"><stop offset="0" stop-color="#969696"/><stop offset="1"/></linearGradient></defs><title>marcador_privados</title><g id="Capa_2" data-name="Capa 2"><path id="_Trazado_" data-name="&lt;Trazado&gt;" class="cls-1" d="M24,47.27c-.58-2.26-1.5-5.81-2.22-8.17a58.61,58.61,0,0,0-5.79-13c-.87-1.55-1.76-3.15-2.68-5l0-.06,0,0a13,13,0,1,1,21.49,0l0,0,0,.05c-.92,1.85-1.82,3.45-2.69,5a58.61,58.61,0,0,0-5.79,13C25.5,41.46,24.58,45,24,47.27Z"/><circle class="cls-2" cx="24" cy="12.5" r="6.79"/><path id="_Trazado_2" data-name="&lt;Trazado&gt;" class="cls-3" d="M24,13.86h0a1.36,1.36,0,0,1-1.36-1.36h0A1.36,1.36,0,0,1,24,11.14h0a1.36,1.36,0,0,1,1.36,1.36h0A1.36,1.36,0,0,1,24,13.86Z"/></g></svg>