<svg id="Capa_3" data-name="Capa 3" xmlns="http://www.w3.org/2000/svg" xmlns:xlink="http://www.w3.org/1999/xlink" viewBox="0 0 48 48"><defs><style>.cls-1{fill:url(#Degradado_sin_nombre_6);}.cls-2{fill:#fff;}.cls-3{fill:#ff0059;fill-rule:evenodd;}</style><linearGradient id="Degradado_sin_nombre_6" x1="24" y1="-1.23" x2="24" y2="37.91" gradientUnits="userSpaceOnUse"><stop offset="0" stop-color="#15c7ff"/><stop offset="1" stop-color="#2a72ff"/></linearGradient></defs><title>marcadores_privados</title><path id="_Trazado_" data-name="&lt;Trazado&gt;" class="cls-1" d="M24,47.54c-.58-2.28-1.52-5.88-2.24-8.27a59.29,59.29,0,0,0-5.86-13.2c-.88-1.56-1.78-3.18-2.72-5l0-.06,0,0a13.13,13.13,0,1,1,21.74,0l0,0,0,.05c-.94,1.87-1.84,3.49-2.72,5.05a59.29,59.29,0,0,0-5.86,13.2C25.52,41.66,24.58,45.26,24,47.54Z"/><circle class="cls-2" cx="24" cy="12.64" r="6.87"/><path id="_Trazado_2" data-name="&lt;Trazado&gt;" class="cls-3" d="M24,14h0a1.37,1.37,0,0,1-1.37-1.37h0A1.37,1.37,0,0,1,24,11.27h0a1.37,1.37,0,0,1,1.37,1.37h0A1.37,1.37,0,0,1,24,14Z"/></svg>